<?xml version="1.0" encoding="utf-8"?>
<!-- Generator: Adobe Illustrator 23.0.1, SVG Export Plug-In . SVG Version: 6.00 Build 0)  -->
<svg version="1.1"
	 id="Layer_1" xmlns:cc="http://creativecommons.org/ns#" xmlns:dc="http://purl.org/dc/elements/1.1/" xmlns:inkscape="http://www.inkscape.org/namespaces/inkscape" xmlns:rdf="http://www.w3.org/1999/02/22-rdf-syntax-ns#" xmlns:sodipodi="http://sodipodi.sourceforge.net/DTD/sodipodi-0.dtd" xmlns:svg="http://www.w3.org/2000/svg"
	 xmlns="http://www.w3.org/2000/svg" xmlns:xlink="http://www.w3.org/1999/xlink" x="0px" y="0px" viewBox="0 0 100 125"
	 style="enable-background:new 0 0 100 125;" xml:space="preserve">
<g transform="translate(0,-952.36218)">
	<path d="M50,958.4c-24.3,0-44,19.7-44,44s19.7,44,44,44s44-19.7,44-44S74.3,958.4,50,958.4z M50,962.4c22.1,0,40,17.9,40,40
		s-17.9,40-40,40s-40-17.9-40-40S27.9,962.4,50,962.4z M56,973.4c-3.8,0-7.5,1.1-10.3,3.5s-4.7,6-4.7,10.5v7h-5c-1.1,0-2,0.9-2,2
		v10.1c0,1.1,0.9,2,2,2c0,0,0,0,0,0l5-0.1v25c0,1.1,0.9,2,2,2h10c1.1,0,2-0.9,2-2v-25h8c1.1,0,2-0.9,2-2v-10c0-1.1-0.9-2-2-2h-8v-7
		h8c1.1,0,2-0.9,2-2v-10c0-1.1-0.9-2-2-2H56z M56,977.4h5v6h-8c-1.1,0-2,0.9-2,2v11c0,1.1,0.9,2,2,2h8v6h-8c-1.1,0-2,0.9-2,2v25h-6
		v-25c0-1.1-0.9-2-2-2c0,0,0,0,0,0l-5,0.1v-6.1h5c1.1,0,2-0.9,2-2v-9c0-3.5,1.3-5.8,3.2-7.5S53,977.4,56,977.4z"/>
</g>
</svg>
