<svg xmlns="http://www.w3.org/2000/svg" viewBox="0 0 196 140.07"><defs><style>.cls-1{fill:#fff;}.cls-2{fill:#ed1c24;}</style></defs><title>logo</title><g id="Layer_2" data-name="Layer 2"><g id="Layer_1-2" data-name="Layer 1"><path class="cls-1" d="M122.79,105.61c1.3-1.52,23.37-28.57.9-70.36a3.66,3.66,0,0,0-5-1.44c-5.71,3.11-15.42,9.41-16.21,16.58l0,.31.15.27c.08.16,8.38,16,2.44,32.59-4.25,11.87-14.63,21.28-30.82,28l-.13,0c-1,.31-23.86,7.58-47.61,3.1L27,25.35a1.66,1.66,0,0,1,1.47-1.65c8.68-1,33.59-1.55,40.4,2a3.72,3.72,0,0,0,4.42-.65C83.15,14.8,88.79,10.1,90,10a1.32,1.32,0,0,0,1.49-1.25c0-2.56-9.26-4.75-12.1-5.36C72.19,1.84,59,0,37,0H.81V1H0V137.86l.86.13a224.24,224.24,0,0,0,28.88,1.75c6.11,0,12.85-.24,19.85-.87C73.74,136.69,106,129.14,122.79,105.61Z"/><path class="cls-2" d="M194.89,0h-62a100.22,100.22,0,0,0-36,11.43C80.53,20.46,61,38.47,61,73.08c.08,1,2.08,24.48,12.78,30.42a1.13,1.13,0,0,0,.25.79,1.26,1.26,0,0,0,1.41.39c4.84-1.31,11.74-4.68,17.16-13.35A2.81,2.81,0,0,0,92.71,89c-1.15-3.73-6.4-23.23,2.89-40.54,6.13-11.43,17.33-19.62,33.3-24.34l.23-.07H168v91c-12.51.51-36,.8-40.64-1.53a3.63,3.63,0,0,0-4,.41l-17.94,15.25a1.09,1.09,0,0,0-.39.77v.5l.28.32c.65.71,3.31,3.2,10.38,5.45,8.08,2.57,18.78,3.86,31.86,3.86,1.78,0,3.6,0,5.46-.07,35-.9,40.84-.19,41.67,0a1.09,1.09,0,0,0,.9-.24l.4-.39V1.11A1.11,1.11,0,0,0,194.89,0Z"/></g></g></svg>