<?xml version="1.0" encoding="utf-8"?>
<!-- Generator: Adobe Illustrator 23.0.1, SVG Export Plug-In . SVG Version: 6.00 Build 0)  -->
<svg version="1.1" id="Layer_1" xmlns="http://www.w3.org/2000/svg" xmlns:xlink="http://www.w3.org/1999/xlink" x="0px" y="0px"
	 viewBox="0 0 85 85" style="enable-background:new 0 0 85 85;" xml:space="preserve">
<style type="text/css">
	.st0{fill:#FFFFFF;}
</style>
<title>organ-kidney</title>
<g id="Layer_1_1_">
	<path class="st0" d="M45.2,59.3c1.5-11.2,4.3-13.1,6.3-14.6c0.5-0.4,1.1-0.7,1.8-0.8c-0.1,0.8-0.5,1.6-1,2.2
		c-2.6,3.3,0.8,7.1,0.8,7.1c6.5,6,12.1,2.2,14.3-0.6C74.1,44.1,67,32,62.2,28l0,0c-5.8-4.8-9.8-1.1-11.6,1.1c-2.4,3-1.2,7.1,0.1,8.9
		c0.8,0.9,1.4,1.9,1.9,3c-1,0.2-1.9,0.6-2.8,1.2c-3.6,2.5-6.1,8.2-7.4,17.1c-1.3-9-3.8-14.6-7.4-17.1c-0.8-0.6-1.8-1-2.8-1.2
		c0.5-1.1,1.1-2.1,1.9-3c1.4-1.7,2.5-5.9,0.1-8.9c-1.8-2.3-5.8-6-11.6-1.1c-4.8,4-12,16-5.2,24.6c2.2,2.8,7.8,6.6,14.3,0.6
		c0,0,3.4-3.8,0.8-7.1c-0.5-0.6-0.9-1.4-1-2.2c0.6,0.1,1.2,0.4,1.8,0.8c2,1.5,4.8,3.4,6.2,14.6L45.2,59.3z"/>
</g>
</svg>
