<?xml version="1.0" encoding="utf-8"?>
<!-- Generator: Adobe Illustrator 23.0.1, SVG Export Plug-In . SVG Version: 6.00 Build 0)  -->
<svg version="1.1" id="Layer_1" xmlns="http://www.w3.org/2000/svg" xmlns:xlink="http://www.w3.org/1999/xlink" x="0px" y="0px"
	 viewBox="0 0 85 85" style="enable-background:new 0 0 85 85;" xml:space="preserve">
<style type="text/css">
	.st0{fill:#FFFFFF;}
</style>
<title>organ-heart</title>
<g id="Layer_1_1_">
	<path class="st0" d="M31.2,28.1c0,0,1.7-3.1-2.3-3.3s-2.9,6.8-3.7,9.8s-6.9,7.9-6.1,14.5s9.1,7.9,9.1,7.9s-2.3-5.8,0.4-10.5
		s3.1-4.6,2.1-8.2S31.2,28.1,31.2,28.1L31.2,28.1z"/>
	<path class="st0" d="M54.9,31.2c1.4,0,2.6,2.8,5.5,2.2s3.8-1.4,3.8-1.4s0.3,2.3,1,2.7c0,0-5,0.9-4.4,1.9s3.5,2.2,3.5,2.2
		s-2.1,2.5-1.8,3.5c0,0-9.1-5.2-10.3-7S51.6,31.3,54.9,31.2L54.9,31.2z"/>
	<path class="st0" d="M59.7,42.8c-4.2-3.7-14-9.8-7.9-11.6c6.1-1.8,7-2.9,5.7-4.3c-1.8-2-9.8-1.1-10.9-2.2c-1.1-1.1,2.4-8,2.4-8
		L45,16c0,0-0.4,7.8-2.1,7.8c-1.7,0-1-7.8-1-7.8c-1.2,1-4,0-4,0s2.9,8.3,1,8.3c-1.9,0-3.7-6.9-3.7-6.9c-0.6,0.9-1.6,1.4-2.6,1.5
		c1.7,2.5,1,7.1,1,7.1c-2.5,2.7-1.9,7.5-1.9,7.5c-0.2,2.6,1.2,7.9,0.1,10.3c-1.5,3.3-5,9-0.8,15.8S44.8,76,59.7,66.1
		C68,60.6,63.8,46.6,59.7,42.8z M46.6,57.1c-1.2-2.7-3.6,3.3-3.6,5c0,0-0.7-2.6,1.2-6.9c0,0-0.8-6.2-2.4-8.9
		c-1.5-2.5-4.9,4.5-5.3,7.7c0,0.3,0,0.5,0,0.5c0-0.2,0-0.3,0-0.5c0.1-1.9,0.9-8.3,3.7-10.3c0,0-2.3-8.7-1.2-11.5
		c0.7-1.7,1.6-3.2,2.8-4.6c-1.1,2.2-1.7,4.6-1.5,7.1c0.3,2.1,0.7,4.3,1.1,6.4c0,0,6.2-0.1,8.3,2.2c0,0-6.2-1.4-7.5-0.9
		c0,0,1,3.1,2.3,6.9s4.9,5,8,5.5c0,0-4.7,0-6-1.2c0.1-0.1,5,10.1,6.1,11.8C54.4,68.1,47.8,59.8,46.6,57.1z"/>
</g>
</svg>
