<?xml version="1.0" encoding="utf-8"?>
<!-- Generator: Adobe Illustrator 23.0.1, SVG Export Plug-In . SVG Version: 6.00 Build 0)  -->
<svg version="1.1" id="Layer_1" xmlns="http://www.w3.org/2000/svg" xmlns:xlink="http://www.w3.org/1999/xlink" x="0px" y="0px"
	 viewBox="0 0 85 85" style="enable-background:new 0 0 85 85;" xml:space="preserve">
<style type="text/css">
	.st0{fill:#FFFFFF;}
</style>
<title>organ-lung</title>
<g id="Layer_1_1_">
	<path class="st0" d="M38.2,40.1c-0.4-4.1-0.7-13.3-4.8-13.5s-12.5,4.2-15.9,20S16.8,67.8,21.8,66s15.7-4.1,16.3-7.5
		S38.9,46.3,38.2,40.1z"/>
	<path class="st0" d="M46,40.1c0.4-4.1,0.7-13.3,4.8-13.5s12.5,4.2,15.9,20c3.4,15.8,0.7,21.2-4.3,19.4S46.6,62,46,58.5
		S45.4,46.3,46,40.1z"/>
	<path class="st0" d="M44.5,14.5h-4.4c0,0,2.2,20.7-1.9,25.5v5.3c0,0,4.1-1.6,4.1-5.8c0,4.2,4.1,5.8,4.1,5.8V40
		C42.2,35.1,44.5,14.5,44.5,14.5L44.5,14.5z"/>
	<path class="st0" d="M42.3,14.5h-2.2c0,0,2.2,20.7-1.9,25.5v5.3c0,0,4.1-1.6,4.1-5.8l0,0C42.3,39.5,42.3,14.5,42.3,14.5z"/>
</g>
</svg>
