<?xml version="1.0" encoding="utf-8"?>
<!-- Generator: Adobe Illustrator 23.0.1, SVG Export Plug-In . SVG Version: 6.00 Build 0)  -->
<svg version="1.1" id="Layer_1" xmlns="http://www.w3.org/2000/svg" xmlns:xlink="http://www.w3.org/1999/xlink" x="0px" y="0px"
	 viewBox="0 0 85 85" style="enable-background:new 0 0 85 85;" xml:space="preserve">
<style type="text/css">
	.st0{fill:#FFFFFF;}
</style>
<title>organ-pancreas</title>
<path class="st0" d="M70.7,24.2c0,0-1.4-1.8-3.8,0c0,0-1.7-1.7-4.3,0c0,0-2.7-1.1-3.7,0.8c0,0-2.9-1.7-4,0.9c0,0-2.7-1.7-4.1,0.6
	c0,0-2.9-2-5,0c0,0-4.3-1.3-6.1,1.3c-1.3-1-3.1-1-4.4,0c0,0-4.5-1.1-6.4,0.7c0,0-3.6-0.7-5.7,1c-1.9,0.2-3.5,1.3-4.5,2.9
	c0,0-3.2,1.8-3.1,4.7c-2.2,1.7-2.9,4.8-1.7,7.3c-0.7,2-0.6,4.2,0.3,6.1c0,0,0.9,4,3.9,4.1c1.4,1.8,3.6,2.8,5.8,2.8c0,0,4.7,2,7.4,0
	c1.7-0.6,3.2-1.7,4.3-3.2c1.3-1.4,1.6-3.5,0.6-5.2c0,0,0.2-2.8-1.9-3.1c0,0,3.4-0.2,4.4-1.5c0,0,4.1,0.1,5.7-1.9c0,0,4-0.5,5.5-2.6
	c0,0,4-0.6,6-2.8c1.7-0.4,3.4-1,5-1.6c0,0,3.7-0.2,4.5-1.8c0,0,3.1-1,3.9-3.1c0,0,1.9-1.9,1.3-3.5C70.6,27.1,71.4,24.8,70.7,24.2z
	 M66.1,28.6c-3.1,3.2-8.5,3.7-12.7,3.3c0,0,0,0,0,0c-1,0.6-2.1,1.1-3.2,1.4c1.2,0.9,2,2.3,2.1,3.8c0,0.5-0.7,0.5-0.8,0
	c-0.2-1.5-1-2.7-2.2-3.5c-3.6,0.9-7.6,0.8-10.9,0.4c-0.5,0.4-1.1,0.8-1.6,1.1c2.3,0.2,4.4,1.5,5.7,3.5c0.2,0.4-0.4,0.8-0.7,0.4
	c-1.4-2.1-3.9-3.4-6.3-3.2c-2.5,1.1-5.3,1.7-7.9,1.8c-0.2,0.5-0.5,1.1-0.8,1.6c2.1,0.4,4,1.7,5,3.6c0.3,0.4-0.4,0.8-0.6,0.4
	c-1-1.9-2.8-3.1-4.9-3.3c-0.8,1.2-1.8,2.3-2.8,3.2c0.1,0.6,0.1,1.3,0.1,2c2.9-0.1,5.6,1.1,7.5,3.3c0.4,0.3-0.2,0.9-0.5,0.5
	c-1.8-1.9-4.5-3.4-7.1-3.1c-0.2,1.2-0.6,2.4-1.3,3.5c-0.2,0.5-0.9,0.1-0.6-0.3c0.8-1,1.2-2.2,1.3-3.3c-0.2-0.2-0.2-0.4,0-0.5
	c0.1-1.9-0.6-3.8-1.7-5.4c-0.3-0.4,0.3-0.8,0.6-0.4c0.7,0.9,1.2,2,1.5,3c0.9-0.9,1.8-1.9,2.5-3c0-0.1,0.1-0.1,0.1-0.2
	c1.2-1.9,2-4.1,1.7-6.3c-0.1-0.5,0.6-0.7,0.7-0.2c0.2,1.4,0,2.8-0.4,4.1c4.5-0.3,9.8-1.9,12.3-5.9c0.3-0.4,1,0,0.7,0.4
	c-0.5,0.8-1.1,1.5-1.8,2.1c3,0.3,6.6,0.3,9.8-0.4c0.1-0.2,0.3-0.3,0.5-0.2c0,0,0,0,0,0c2.4-0.7,4.6-1.9,6.1-3.8c0.3-0.4,1,0,0.7,0.4
	c-0.6,0.7-1.2,1.3-1.9,1.9c3.9,0.3,8.5-0.3,11.3-3.2C65.9,27.7,66.4,28.2,66.1,28.6z"/>
</svg>
