<?xml version="1.0" encoding="utf-8"?>
<!-- Generator: Adobe Illustrator 23.0.1, SVG Export Plug-In . SVG Version: 6.00 Build 0)  -->
<svg version="1.1" id="Layer_1" xmlns="http://www.w3.org/2000/svg" xmlns:xlink="http://www.w3.org/1999/xlink" x="0px" y="0px"
	 viewBox="0 0 85 85" style="enable-background:new 0 0 85 85;" xml:space="preserve">
<style type="text/css">
	.st0{fill:#FFFFFF;}
</style>
<title>organ-liver</title>
<path class="st0" d="M51.6,21.8c-13.7,0.1-27.1-3.5-32.3,6.8s-3.4,32.2,1.8,31.6c5.2-0.6,13.7-9.7,17.7-14c4-4.3,9.4-3.5,14.8-5.5
	c9.4-3.4,14.6-12,14.4-15.9C67.9,22.4,65.3,21.7,51.6,21.8z M46.8,38.8c-3.7,0-6.5,0.2-9.6,4.6c-3.1,4.4-10.1,10.1-13.7,11.1
	s-4-1.7-4-1.7c5.9,3,20.4-13.7,20.9-19s-3.3-10.9-3.3-10.9c5.1,1.3,8.4,14,15.8,12.3c4.2-0.9,8-3.3,10.8-6.7
	C62,34.5,50.5,38.8,46.8,38.8z"/>
</svg>
